<svg xmlns="http://www.w3.org/2000/svg" viewBox="0 0 400 220" width="400" height="220">
  <defs>
    <linearGradient id="bg" x1="0%" y1="0%" x2="100%" y2="100%">
      <stop offset="0%" style="stop-color:#fef5e7"/>
      <stop offset="100%" style="stop-color:#fdebd0"/>
    </linearGradient>
    <linearGradient id="tomato" x1="0%" y1="0%" x2="0%" y2="100%">
      <stop offset="0%" style="stop-color:#e74c3c"/>
      <stop offset="100%" style="stop-color:#c0392b"/>
    </linearGradient>
  </defs>
  <rect width="400" height="220" fill="url(#bg)"/>
  <ellipse cx="100" cy="100" rx="45" ry="48" fill="url(#tomato)" stroke="#a93226" stroke-width="1"/>
  <ellipse cx="200" cy="95" rx="50" ry="52" fill="url(#tomato)" stroke="#a93226" stroke-width="1"/>
  <ellipse cx="300" cy="100" rx="45" ry="48" fill="url(#tomato)" stroke="#a93226" stroke-width="1"/>
  <ellipse cx="150" cy="155" rx="38" ry="40" fill="url(#tomato)" stroke="#a93226" stroke-width="1"/>
  <ellipse cx="250" cy="158" rx="38" ry="40" fill="url(#tomato)" stroke="#a93226" stroke-width="1"/>
  <path d="M95 55 Q120 35 145 55 Q130 70 95 55" fill="#27ae60" stroke="#1e8449" stroke-width="0.8"/>
  <path d="M195 50 Q225 28 255 50 Q235 68 195 50" fill="#27ae60" stroke="#1e8449" stroke-width="0.8"/>
  <path d="M295 55 Q320 35 345 55 Q330 70 295 55" fill="#27ae60" stroke="#1e8449" stroke-width="0.8"/>
  <text x="200" y="200" font-family="sans-serif" font-size="28" font-weight="bold" fill="#c0392b" text-anchor="middle">SALE</text>
  <text x="200" y="215" font-family="sans-serif" font-size="14" fill="#2d4a2a" text-anchor="middle">FasterShave.dk</text>
</svg>
